<svg id="Livello_1" data-name="Livello 1" xmlns="http://www.w3.org/2000/svg" viewBox="0 0 707.4 148.82"><defs><style>.cls-1{fill:#fff;}</style></defs><title>Tavola disegno 1</title><path class="cls-1" d="M289.83,89.14c2.94-9.27,8.88-27.27,8.88-27.27h-6.79v-9h22v8.25c-1.83,0-3.6.09-5.37,0-1.17-.07-1.57.38-1.9,1.43-3.93,12.37-7.93,24.73-11.87,37.1-.37,1.16-.86,1.47-2.5,1.21a16.89,16.89,0,0,0-5,0c-1.47.22-1.89-.06-2.22-1.1q-5-15.83-10.13-31.63c-.1-.3-.2-.6-.39-1.19-.66,2-1.25,3.74-1.82,5.5q-4.47,13.67-8.91,27.35c-.36,1.14-.9,1.25-2.41,1.06a18.54,18.54,0,0,0-4.88,0c-1.53.21-2.08,0-2.44-1.12-4-12.46-8-24.89-12-37.34a1.82,1.82,0,0,0-1.85-1.27c-1.41.08-2.84,0-4.33,0V52.87h20v8h-5.76c3,9.7,5.94,19,8.88,28.23l.26,0c2.92-9.24,8.84-27.25,8.84-27.25h-5.22v-9h23v8h-5.2c3,9.72,5.94,19,8.88,28.3Z"/><path class="cls-1" d="M439.92,99.87h-27v-8h8v-51h-9V32.49c.3,0,.61-.09.91-.09,9.44,0,18.87,0,28.31.12a63,63,0,0,1,9.48.95c6.24,1,10.37,4.87,12.62,10.42,3.35,8.27,2.67,16.25-3.13,23.4-2.94,3.62-7.13,5.34-11.67,5.78-5.28.52-10.62.52-15.92.74-.79,0-1.58,0-2.57,0l.66,17h9.31Zm-9-59.38V65.84c2.84,0,5.61.19,8.34,0a53,53,0,0,0,8.58-1.42c3.19-.83,5.07-3.17,5.92-6.33a18.81,18.81,0,0,0,.43-7.72c-.67-4.68-3.78-8.44-8-8.91C441.2,40.86,436.12,40.78,430.92,40.49Z"/><path class="cls-1" d="M141.92,40.87h-9v-8h28v8h-9v51h21v-24h10v32h-50v-8h9Z"/><path class="cls-1" d="M646.23,89.33a23.22,23.22,0,0,1-7.75,7.77c-8.74,5.13-17.94,6.08-27.38,2.31-10.2-4.07-15.63-13.35-15-24.63.76-13.17,10.94-20.66,19-22.58,13.09-3.1,27.92,5.2,30.35,19.9.36,2.19.55,4.4.84,6.77h-39.8c.38,6.09,5.08,14.12,14.63,14.64,6.65.36,12.15-1.84,16.3-7.15a1.22,1.22,0,0,1,1-.39C641.05,87,643.55,88.16,646.23,89.33ZM606.92,71.87h29.46C636,65.05,628.13,58.74,620.3,59,612.26,59.21,607.29,66.34,606.92,71.87Z"/><path class="cls-1" d="M187.49,76.54c-.19-14.7,11.2-25.12,25-25.07,14.17.05,24.64,10.62,24.94,24.51.33,15.83-12.08,25.33-24.33,25.6C199.26,101.89,187.35,91.69,187.49,76.54Zm40.11,0c-.22-1.5-.32-3-.67-4.49-2.56-10.79-15.89-15.22-24.11-8-4.23,3.7-5.68,8.51-5.38,14a15.11,15.11,0,0,0,19,13.89C223,90.22,227.45,84,227.6,76.55Z"/><path class="cls-1" d="M583.05,84.17l7.46,3.72c-.86,1.58-1.6,3.16-2.53,4.6-4.25,6.61-10.38,9.49-17.74,9.77-4.81.18-9.45-.59-13.52-3.49-6-4.26-9.4-10.39-10.48-17.87-1-6.76,0-13.2,3.7-19,5.88-9.07,16.58-12.87,25.81-9.08a49.83,49.83,0,0,1,5.17,2.87V52.87h8v18H581c-.11-.54-.22-1.16-.37-1.78a11.55,11.55,0,0,0-11.88-8.86c-6,.25-10.44,3.78-12.21,9.82a21.63,21.63,0,0,0,1.29,16.07c3.15,6.43,8.1,8.13,14.22,7.28,4.39-.62,7.62-3.19,9.89-7.17C582.3,85.6,582.63,85,583.05,84.17Z"/><path class="cls-1" d="M389.79,91.87h10.13v8h-29v-8h9v-31h-9v-8h17v9.62l.25,0c.09-.15.19-.3.27-.46,2.93-6.39,7.83-9.8,14.86-9.92,1.86,0,3.71,0,5.62,0v9.26c-2.18.11-4.39.17-6.58.35a23.7,23.7,0,0,0-3.76.57c-4.79,1.16-7.6,4.28-8.15,9.71-.47,4.7-.47,9.44-.63,14.16C389.73,88,389.79,89.88,389.79,91.87Z"/><path class="cls-1" d="M478.92,60.87h-9v-8h17v9.78l.22,0c.13-.22.27-.43.38-.66,3-6.46,8-9.79,15-9.87h5.38v9.21c-2.72.19-5.38.22-8,.58-6.68.92-9.37,3.53-10.49,10.28-1.08,6.47-.48,13-.63,19.64h10.12v8h-29v-8h9Z"/><path class="cls-1" d="M530.92,91.87h8v8h-24v-8h7v-31h-8v-8h17Z"/><path class="cls-1" d="M526.26,42.33a5.58,5.58,0,1,1-.1-11.15,5.58,5.58,0,1,1,.1,11.15Z"/><path class="cls-1" d="M120.43,78.87H81.1a12.16,12.16,0,0,0,2.07,6.93c3.2,5,7.73,7.56,13.76,7.38a34.53,34.53,0,0,0,3.71-.31,38.24,38.24,0,0,0,6.53-1.53,47.6,47.6,0,0,0,10.31-4.83l-6.43-2.05,15.57-4.7-1.26,13.5L121.64,89a30.5,30.5,0,0,1-32,11.61C79.23,98.37,69.8,90.08,70.42,75.29c.42-10,5.4-17.11,14.31-21.31s17.6-3,25.54,2.7c5.89,4.21,9,10.15,9.71,17.31C120.15,75.57,120.27,77.16,120.43,78.87Zm-39-7h29c0-5.32-7-13-15.67-12.69C87.9,59.41,81.11,65.76,81.44,71.87Z"/><path class="cls-1" d="M358.09,114.93l-12.38-7.87,4.28-1.77a16.86,16.86,0,0,0-6.92-2.56c-3.32-.58-6.71-.84-9.95-1.68-10.88-2.82-17.59-11.72-17.64-23,0-6.28,1.47-12,5.74-16.8,11.55-12.94,32.64-10.73,40.76,4.27a27.12,27.12,0,0,1,2.92,11c.08,1.06.17,2.13.28,3.35H325.87a29.31,29.31,0,0,0,1.31,4.85c2.57,5.44,6.72,8.7,12.92,9.32s12.06,2.7,16.65,7.29a2,2,0,0,0,2.73.52,14.76,14.76,0,0,1,2.23-.81l.9-.3c-1.49,4.82-2.93,9.48-4.36,14.13ZM326.48,71.87h28.86c-.09-.58-.13-1.09-.25-1.58C353.76,65,347.8,60.15,342,59.41c-6.66-.85-12.62,3.72-14.6,8A8,8,0,0,0,326.48,71.87Z"/></svg>