<svg id="Livello_1" data-name="Livello 1" xmlns="http://www.w3.org/2000/svg" viewBox="0 0 707.4 148.82"><defs><style>.cls-1{fill:#fff;}.cls-2{fill:#009444;}.cls-3{fill:#d32633;}</style></defs><title>Tavola disegno 1</title><path class="cls-1" d="M271.16,92.78C274.7,81.64,281.83,60,281.83,60h-8.16V49.2h26.44v9.91c-2.19,0-4.33.1-6.45,0-1.41-.09-1.88.45-2.28,1.7-4.73,14.88-9.54,29.73-14.28,44.61-.44,1.39-1,1.76-3,1.45a20,20,0,0,0-6,0c-1.77.26-2.27-.07-2.67-1.33q-6-19-12.17-38l-.48-1.43c-.79,2.4-1.5,4.5-2.18,6.6q-5.38,16.44-10.71,32.89c-.44,1.36-1.08,1.5-2.9,1.27a22.11,22.11,0,0,0-5.86,0c-1.84.27-2.51,0-2.94-1.34-4.77-15-9.61-29.91-14.37-44.88a2.21,2.21,0,0,0-2.22-1.53c-1.71.1-3.42,0-5.21,0V49.2h24v9.61h-6.92c3.61,11.66,7.14,22.79,10.67,33.92l.31,0C238,81.66,245.09,60,245.09,60h-6.28V49.2h27.65v9.61h-6.25c3.61,11.68,7.14,22.85,10.68,34Z"/><path class="cls-1" d="M451.56,105.69H419.11V96.07h9.61V34.77H417.9V24.7a10.24,10.24,0,0,1,1.1-.11c11.34,0,22.68,0,34,.14a76.58,76.58,0,0,1,11.4,1.14c7.5,1.25,12.47,5.86,15.17,12.53,4,9.94,3.21,19.53-3.76,28.12-3.54,4.36-8.57,6.43-14,7-6.34.61-12.75.61-19.13.87-1,0-1.9,0-3.09,0l.8,20.48h11.19ZM440.74,34.31V64.78c3.42,0,6.74.23,10-.06A63.14,63.14,0,0,0,461.08,63c3.83-1,6.1-3.81,7.12-7.61a22.88,22.88,0,0,0,.52-9.28c-.81-5.62-4.55-10.14-9.58-10.7C453.1,34.75,447,34.66,440.74,34.31Z"/><path class="cls-1" d="M93.37,34.77H82.56V25.16h33.65v9.61H105.39v61.3h25.25V67.23h12v38.46H82.56V96.07H93.37Z"/><path class="cls-1" d="M699.53,93a28,28,0,0,1-9.31,9.34c-10.5,6.16-21.56,7.3-32.9,2.77-12.26-4.89-18.8-16-18-29.6.92-15.83,13.15-24.83,22.89-27.14,15.73-3.73,33.56,6.25,36.48,23.92.43,2.63.66,5.29,1,8.14H651.84c.46,7.32,6.11,17,17.59,17.59,8,.44,14.59-2.21,19.59-8.59a1.44,1.44,0,0,1,1.23-.47C693.3,90.25,696.32,91.6,699.53,93ZM652.29,72H687.7c-.47-8.2-9.92-15.78-19.33-15.5C658.7,56.81,652.74,65.38,652.29,72Z"/><path class="cls-1" d="M148.15,77.64c-.23-17.67,13.46-30.19,30-30.13,17,.06,29.61,12.77,30,29.45.41,19-14.52,30.45-29.24,30.78C162.3,108.11,148,95.85,148.15,77.64Zm48.2,0c-.25-1.8-.37-3.63-.79-5.39-3.08-13-19.11-18.3-29-9.64-5.08,4.45-6.84,10.23-6.47,16.83a18.16,18.16,0,0,0,22.82,16.7C190.81,94.09,196.18,86.61,196.35,77.65Z"/><path class="cls-1" d="M623.6,86.82l9,4.47c-1,1.89-1.92,3.79-3,5.53-5.11,7.94-12.47,11.4-21.32,11.73-5.78.22-11.36-.71-16.26-4.18-7.22-5.13-11.29-12.5-12.59-21.49-1.17-8.12-.06-15.87,4.44-22.8,7.07-10.9,19.94-15.47,31-10.91A60.74,60.74,0,0,1,621,52.62V49.2h9.61V70.83h-9.5c-.14-.65-.27-1.4-.45-2.14A13.89,13.89,0,0,0,606.42,58c-7.16.31-12.55,4.55-14.67,11.82a26,26,0,0,0,1.55,19.31c3.78,7.72,9.72,9.77,17.08,8.74,5.29-.73,9.17-3.83,11.89-8.62C622.7,88.54,623.09,87.76,623.6,86.82Z"/><path class="cls-1" d="M391.3,96.07h12.18v9.62H368.62V96.07h10.82V58.81H368.62V49.2h20.44V60.76l.3.06a6.05,6.05,0,0,0,.32-.55c3.53-7.69,9.41-11.78,17.87-11.93,2.23,0,4.45,0,6.75,0V59.46c-2.63.13-5.28.21-7.92.41a29.77,29.77,0,0,0-4.51.69c-5.76,1.39-9.14,5.14-9.79,11.68-.57,5.64-.57,11.34-.77,17C391.24,91.46,391.3,93.68,391.3,96.07Z"/><path class="cls-1" d="M498.44,58.81H487.62V49.2h20.43V61l.26,0a7.16,7.16,0,0,0,.46-.8c3.58-7.76,9.56-11.76,18.05-11.86,2.14,0,4.27,0,6.47,0V59.41c-3.26.23-6.47.27-9.62.7-8,1.11-11.26,4.23-12.61,12.35-1.29,7.78-.57,15.65-.75,23.61h12.16v9.62H487.62V96.07h10.82Z"/><path class="cls-1" d="M560.94,96.07h9.61v9.62H541.71V96.07h8.41V58.81H540.5V49.2h20.44Z"/><path class="cls-1" d="M555.33,36.53a6.71,6.71,0,1,1-.12-13.41A6.55,6.55,0,0,1,562,29.77,6.52,6.52,0,0,1,555.33,36.53Z"/><path class="cls-2" d="M67.54,80.45H20.27a14.56,14.56,0,0,0,2.49,8.32c3.84,6,9.29,9.08,16.54,8.87a39.81,39.81,0,0,0,4.45-.37,46.43,46.43,0,0,0,7.86-1.84A57.18,57.18,0,0,0,64,89.62l-7.72-2.46L75,81.52,73.47,97.74,69,92.62a36.69,36.69,0,0,1-38.47,13.95C18,103.88,6.69,93.91,7.43,76.14c.51-12,6.49-20.56,17.21-25.61s21.15-3.59,30.69,3.24C62.41,58.83,66.11,66,67,74.58,67.2,76.48,67.35,78.39,67.54,80.45ZM20.68,72H55.55c0-6.4-8.38-15.6-18.84-15.25C28.45,57.05,20.28,64.68,20.68,72Z"/><path class="cls-3" d="M353.21,123.78l-14.89-9.46,5.15-2.12a20.46,20.46,0,0,0-8.33-3.08c-4-.69-8.06-1-11.95-2C310.11,103.71,302.05,93,302,79.52c0-7.56,1.76-14.45,6.9-20.2,13.88-15.55,39.23-12.89,49,5.14a32.47,32.47,0,0,1,3.51,13.16c.1,1.28.21,2.55.33,4H314.47a34.94,34.94,0,0,0,1.58,5.82c3.09,6.55,8.07,10.46,15.52,11.2s14.5,3.25,20,8.77a2.43,2.43,0,0,0,3.28.62,18.57,18.57,0,0,1,2.68-1c.26-.1.53-.18,1.08-.36-1.79,5.79-3.51,11.39-5.24,17ZM315.21,72H349.9c-.11-.69-.16-1.31-.3-1.9-1.6-6.4-8.77-12.19-15.74-13.08-8-1-15.17,4.47-17.55,9.64A9.55,9.55,0,0,0,315.21,72Z"/></svg>