<svg id="Livello_1" data-name="Livello 1" xmlns="http://www.w3.org/2000/svg" viewBox="0 0 707.4 148.82"><defs><style>.cls-1{fill:#009444;}.cls-2{fill:#d32633;}</style></defs><title>Tavola disegno 1</title><path d="M282.27,89.14c2.94-9.27,8.87-27.27,8.87-27.27h-6.79v-9h22v8.25c-1.82,0-3.6.09-5.37,0-1.17-.07-1.56.38-1.9,1.43-3.93,12.37-7.93,24.73-11.87,37.1-.37,1.16-.86,1.47-2.49,1.21a17,17,0,0,0-5,0c-1.47.22-1.89-.06-2.22-1.1q-5-15.83-10.13-31.63c-.09-.3-.19-.6-.39-1.19-.66,2-1.25,3.74-1.82,5.5q-4.47,13.67-8.91,27.35c-.36,1.14-.9,1.25-2.41,1.06a18.54,18.54,0,0,0-4.88,0c-1.53.21-2.08,0-2.44-1.12-4-12.46-8-24.89-12-37.34a1.82,1.82,0,0,0-1.85-1.27c-1.41.08-2.84,0-4.33,0V52.87h20v8H242.6c3,9.7,5.93,19,8.87,28.23l.26,0c2.93-9.24,8.84-27.25,8.84-27.25h-5.22v-9h23v8h-5.2c3,9.72,6,19,8.89,28.3Z"/><path d="M432.35,99.87h-27v-8h8v-51h-9V32.49c.3,0,.61-.09.91-.09,9.44,0,18.87,0,28.31.12a63,63,0,0,1,9.48.95c6.24,1,10.38,4.87,12.62,10.42,3.35,8.27,2.67,16.25-3.13,23.4-2.94,3.62-7.13,5.34-11.67,5.78-5.28.52-10.61.52-15.92.74-.79,0-1.58,0-2.57,0l.67,17h9.3Zm-9-59.38V65.84c2.84,0,5.61.19,8.34,0a53,53,0,0,0,8.58-1.42c3.19-.83,5.07-3.17,5.93-6.33a19.16,19.16,0,0,0,.43-7.72c-.68-4.68-3.78-8.44-8-8.91C433.63,40.86,428.56,40.78,423.35,40.49Z"/><path d="M134.35,40.87h-9v-8h28v8h-9v51h21v-24h10v32h-50v-8h9Z"/><path d="M638.66,89.33a23.22,23.22,0,0,1-7.75,7.77c-8.74,5.13-17.94,6.08-27.37,2.31-10.2-4.07-15.64-13.35-15-24.63.76-13.17,10.94-20.66,19-22.58,13.09-3.1,27.92,5.2,30.35,19.9.36,2.19.55,4.4.84,6.77H599c.38,6.09,5.09,14.12,14.63,14.64,6.65.36,12.15-1.84,16.31-7.15a1.2,1.2,0,0,1,1-.39C633.48,87,636,88.16,638.66,89.33ZM599.35,71.87h29.47c-.4-6.82-8.26-13.13-16.09-12.9C604.69,59.21,599.73,66.34,599.35,71.87Z"/><path d="M179.92,76.54c-.19-14.7,11.2-25.12,25-25.07,14.17.05,24.64,10.62,24.94,24.51.34,15.83-12.08,25.33-24.33,25.6C191.7,101.89,179.78,91.69,179.92,76.54Zm40.11,0c-.22-1.5-.32-3-.66-4.49-2.57-10.79-15.9-15.22-24.12-8-4.22,3.7-5.68,8.51-5.38,14a15.11,15.11,0,0,0,19,13.89C215.42,90.22,219.88,84,220,76.55Z"/><path d="M575.48,84.17l7.46,3.72c-.86,1.58-1.6,3.16-2.53,4.6-4.25,6.61-10.38,9.49-17.74,9.77-4.81.18-9.45-.59-13.52-3.49-6-4.26-9.4-10.39-10.48-17.87-1-6.76,0-13.2,3.7-19,5.88-9.07,16.59-12.87,25.81-9.08a49.83,49.83,0,0,1,5.17,2.87V52.87h8v18h-7.9c-.12-.54-.23-1.16-.38-1.78a11.53,11.53,0,0,0-11.88-8.86c-6,.25-10.44,3.78-12.21,9.82a21.73,21.73,0,0,0,1.29,16.07c3.15,6.43,8.1,8.13,14.22,7.28,4.4-.62,7.62-3.19,9.89-7.17C574.73,85.6,575.06,85,575.48,84.17Z"/><path d="M382.22,91.87h10.13v8h-29v-8h9v-31h-9v-8h17v9.62l.25,0c.09-.15.19-.3.27-.46,2.94-6.39,7.83-9.8,14.87-9.92,1.85,0,3.7,0,5.61,0v9.26c-2.18.11-4.39.17-6.58.35a23.88,23.88,0,0,0-3.76.57c-4.79,1.16-7.6,4.28-8.15,9.71-.47,4.7-.47,9.44-.63,14.16C382.16,88,382.22,89.88,382.22,91.87Z"/><path d="M471.35,60.87h-9v-8h17v9.78l.22,0A6.24,6.24,0,0,0,480,62c3-6.46,8-9.79,15-9.87h5.38v9.21c-2.72.19-5.38.22-8,.58-6.68.92-9.37,3.53-10.49,10.28-1.08,6.47-.48,13-.63,19.64h10.12v8h-29v-8h9Z"/><path d="M523.35,91.87h8v8h-24v-8h7v-31h-8v-8h17Z"/><path d="M518.69,42.33a5.58,5.58,0,1,1-.1-11.15,5.58,5.58,0,1,1,.1,11.15Z"/><path class="cls-1" d="M112.86,78.87H73.53A12.23,12.23,0,0,0,75.6,85.8a14.88,14.88,0,0,0,13.77,7.38,34.34,34.34,0,0,0,3.7-.31,38.24,38.24,0,0,0,6.53-1.53,47.6,47.6,0,0,0,10.31-4.83l-6.43-2.05,15.57-4.7-1.26,13.5L114.07,89a30.5,30.5,0,0,1-32,11.61C71.66,98.37,62.23,90.08,62.85,75.29c.42-10,5.4-17.11,14.32-21.31s17.59-3,25.53,2.7c5.89,4.21,9,10.15,9.71,17.31C112.58,75.57,112.7,77.16,112.86,78.87Zm-39-7h29c0-5.32-7-13-15.67-12.69C80.33,59.41,73.54,65.76,73.87,71.87Z"/><path class="cls-2" d="M350.53,114.93l-12.39-7.87,4.28-1.77a16.86,16.86,0,0,0-6.92-2.56c-3.32-.58-6.71-.84-9.95-1.68-10.88-2.82-17.59-11.72-17.64-23,0-6.28,1.47-12,5.74-16.8,11.55-12.94,32.64-10.73,40.77,4.27a27.11,27.11,0,0,1,2.91,11c.09,1.06.18,2.13.28,3.35H318.3a29.29,29.29,0,0,0,1.32,4.85c2.56,5.44,6.71,8.7,12.91,9.32s12.06,2.7,16.65,7.29a2,2,0,0,0,2.73.52,15.17,15.17,0,0,1,2.23-.81l.9-.3c-1.49,4.82-2.92,9.48-4.36,14.13ZM318.92,71.87h28.85c-.09-.58-.13-1.09-.25-1.58-1.33-5.32-7.29-10.14-13.09-10.88-6.65-.85-12.62,3.72-14.6,8A7.92,7.92,0,0,0,318.92,71.87Z"/></svg>