<?xml version="1.0"?>
<svg xmlns="http://www.w3.org/2000/svg" xmlns:xlink="http://www.w3.org/1999/xlink" version="1.1" id="Capa_1" x="0px" y="0px" width="512px" height="512px" viewBox="0 0 479.607 479.607" style="enable-background:new 0 0 479.607 479.607;" xml:space="preserve" class=""><g><g>
	<path d="M476.688,0L239.525,42.035v-0.281L2.919,0.05v479.278l236.605-53.117v-0.104l237.163,53.5L476.688,0L476.688,0z    M39.161,250.069c-7.166,0-12.973-7.199-12.973-16.08c0-8.879,5.807-16.079,12.973-16.079s12.975,7.2,12.975,16.079   C52.136,242.869,46.327,250.069,39.161,250.069z M447.836,443.859l-191.13-41.289v-28.866h4.094v-47.022h-4.094V152.13h4.094   v-47.021h-4.094V66.601l191.13-32.439V443.859z" data-original="#000000" class="active-path" data-old_color="#000000" fill="#FFFFFF"/>
</g></g> </svg>
