<?xml version="1.0"?>
<svg xmlns="http://www.w3.org/2000/svg" height="512px" viewBox="0 0 512.0095 512" width="512px" class=""><g><path d="m512.007812 394.671875c0 64.800781-52.53125 117.332031-117.332031 117.332031s-117.332031-52.53125-117.332031-117.332031 52.53125-117.332031 117.332031-117.332031 117.332031 52.53125 117.332031 117.332031zm0 0" fill="#009688" data-original="#009688" class="" style="fill:#3A3A3A" data-old_color="#3a3a3a"/><path d="m373.34375 10.671875h-234.667969v128h-128v320h249.214844c-9.554687-19.988281-14.546875-41.769531-14.546875-64 0-74.175781 55.464844-137.214844 128-147.667969zm0 0" fill="#cfd8dc" data-original="#CFD8DC" class="" style="fill:#3A3A3A" data-old_color="#3a3a3a"/><path d="m142.75.816406c-3.96875-1.644531-8.554688-.7460935-11.625 2.304688l-128 128c-3.0507812 3.050781-3.96875 7.65625-2.304688 11.625 1.640626 3.988281 5.546876 6.59375 9.855469 6.59375h128c5.886719 0 10.667969-4.78125 10.667969-10.667969v-128c0-4.308594-2.605469-8.214844-6.59375-9.855469zm0 0" fill="#b0bec5" data-original="#B0BEC5" class="" style="fill:#3A3A3A" data-old_color="#3a3a3a"/><path d="m394.675781 512.003906c-64.703125 0-117.332031-52.628906-117.332031-117.332031s52.628906-117.332031 117.332031-117.332031 117.332031 52.628906 117.332031 117.332031-52.628906 117.332031-117.332031 117.332031zm0-213.332031c-52.925781 0-96 43.070313-96 96 0 52.925781 43.074219 96 96 96 52.929688 0 96-43.074219 96-96 0-52.929687-43.070312-96-96-96zm0 0" data-original="#000000" class="active-path" style="fill:#FFFFFF" data-old_color="#ffffff"/><path d="m256.007812 469.339844h-245.332031c-5.886719 0-10.6679685-4.78125-10.6679685-10.667969v-320c0-2.835937 1.1328125-5.546875 3.1171875-7.550781l128-128c2.003906-1.984375 4.714844-3.11718775 7.550781-3.11718775h234.667969c5.886719 0 10.664062 4.78124975 10.664062 10.66796875v234.667969c0 5.886718-4.777343 10.664062-10.664062 10.664062-5.890625 0-10.667969-4.777344-10.667969-10.664062v-224h-219.582031l-121.75 121.746094v304.917968h234.664062c5.890626 0 10.667969 4.78125 10.667969 10.667969s-4.777343 10.667969-10.667969 10.667969zm0 0" data-original="#000000" class="active-path" style="fill:#FFFFFF" data-old_color="#ffffff"/><path d="m138.675781 149.339844h-128c-5.886719 0-10.6679685-4.78125-10.6679685-10.667969s4.7812495-10.667969 10.6679685-10.667969h117.332031v-117.332031c0-5.886719 4.78125-10.66796875 10.667969-10.66796875s10.667969 4.78124975 10.667969 10.66796875v128c0 5.886719-4.78125 10.667969-10.667969 10.667969zm0 0" data-original="#000000" class="active-path" style="fill:#FFFFFF" data-old_color="#ffffff"/><path d="m394.675781 448.003906c-17.640625 0-32-14.355468-32-32v-42.664062c0-17.644532 14.359375-32 32-32 17.644531 0 32 14.355468 32 32 0 5.886718-4.777343 10.664062-10.667969 10.664062-5.886718 0-10.664062-4.777344-10.664062-10.664062 0-5.890625-4.78125-10.667969-10.667969-10.667969s-10.667969 4.777344-10.667969 10.667969v42.664062c0 5.890625 4.78125 10.667969 10.667969 10.667969s10.667969-4.777344 10.667969-10.667969c0-5.886718 4.777344-10.664062 10.664062-10.664062 5.890626 0 10.667969 4.777344 10.667969 10.664062 0 17.644532-14.355469 32-32 32zm0 0" data-original="#000000" class="active-path" style="fill:#FFFFFF" data-old_color="#ffffff"/></g> </svg>
