<svg id="Livello_1" data-name="Livello 1" xmlns="http://www.w3.org/2000/svg" viewBox="0 0 112.12 100"><defs><style>.cls-1{fill:#39b54a;}.cls-2{fill:#ed1c24;}.cls-3{font-size:48.54px;fill:#fff;font-family:MyriadPro-Regular, Myriad Pro;}</style></defs><title>Tavola disegno 1</title><rect class="cls-1" x="15.94" y="28.52" width="82" height="13"/><rect x="15.94" y="67.52" width="82" height="13"/><rect class="cls-2" x="15.94" y="54.52" width="82" height="13"/><rect x="15.94" y="41.52" width="82" height="13"/><path d="M82.86,28.51c-1.49,0-2.9,0-4.31,0a.67.67,0,0,1-.48-.35A9.3,9.3,0,0,0,73.79,23a25.34,25.34,0,0,0-10.07-3.63,38.73,38.73,0,0,0-18.3,1.19,16.4,16.4,0,0,0-7.54,4.4A20.45,20.45,0,0,0,36,28c-.13.2-.34.48-.51.49-1.34,0-2.68,0-4.25,0A32.49,32.49,0,0,1,31.51,25a13.38,13.38,0,0,1,4.59-7.5,27.07,27.07,0,0,1,12.76-6.09A37.4,37.4,0,0,1,71,13.15a21,21,0,0,1,9.75,7.3A11.35,11.35,0,0,1,82.86,28.51Z"/><text class="cls-3" transform="translate(21.18 71.51)">ELP</text></svg>